PathFileType	4	(X/Y/Z)	../Python\walking\Walking19\task.trc
DataRate	CameraRate	NumFrames	NumMarkers	Units	OrigDataRate	OrigDataStartFrame	OrigNumFrames
200.000000	200.000000	4	30	mm	200.000000	499	571
Frame#	Time	RBAK			CLAV			STRN			RASI			LASI			PE01			RTH1			RTH2			RTH3			RTB2			RTB3			RD5M			RTOE			LTH3			LTB2			LTB3			LHEE			LTOE			LD5M			RHEE			LTH1			LTH2			C7			RTB1			LPSI			PE03			PE02			RPSI			T10			LTB1			
		X1	Y1	Z1	X2	Y2	Z2	X3	Y3	Z3	X4	Y4	Z4	X5	Y5	Z5	X6	Y6	Z6	X7	Y7	Z7	X8	Y8	Z8	X9	Y9	Z9	X10	Y10	Z10	X11	Y11	Z11	X12	Y12	Z12	X13	Y13	Z13	X14	Y14	Z14	X15	Y15	Z15	X16	Y16	Z16	X17	Y17	Z17	X18	Y18	Z18	X19	Y19	Z19	X20	Y20	Z20	X21	Y21	Z21	X22	Y22	Z22	X23	Y23	Z23	X24	Y24	Z24	X25	Y25	Z25	X26	Y26	Z26	X27	Y27	Z27	X28	Y28	Z28	X29	Y29	Z29	X30	Y30	Z30	

500	2.495	1595.783691406251	1264.341186523438	303.8426818847657	1751.926269531251	1267.747192382813	175.0007019042969	1809.326049804688	1079.714111328125	174.8204345703126	1772.562011718751	883.149291992188	315.1077575683595	1773.139404296876	874.744506835938	89.44522857666018	1577.917236328126	966.306274414063	212.2903594970704	1684.373168945313	590.8803710937502	333.9854431152345	1693.129028320313	514.884704589844	312.4220275878907	1725.707641601563	566.0681152343752	318.5838623046876	1624.402099609376	255.6424560546876	298.7795410156251	1648.808349609376	216.081268310547	278.9064331054689	1689.045410156251	19.70390510559083	275.4923400878907	1725.921020507813	34.37176895141603	220.1059112548829	1847.848876953126	621.7264404296877	52.2009086608887	1735.292480468751	273.7698669433595	86.14357757568362	1784.059204101563	283.329315185547	86.41374969482425	1635.274902343751	118.292465209961	153.3213043212891	1809.171508789063	61.48271560668948	122.9794006347657	1765.604614257813	62.11956024169925	84.15509033203128	1536.609741210938	35.28540802001955	211.7536010742189	1798.929321289063	622.8718261718752	52.44761657714847	1797.562866210938	563.5804443359377	69.77684020996097	1627.753295898438	1359.027099609375	191.3243560791016	1672.832641601563	291.2030029296876	286.3232421875001	1573.085571289063	926.2940063476567	171.6888885498047	1561.595825195313	904.5704956054692	187.8111572265626	1562.096679687501	906.3242797851567	238.4015502929689	1575.710571289063	932.6430664062505	261.2112731933595	1598.219116210938	1064.112915039063	205.9023284912111	1772.848754882813	343.0152893066407	73.56352996826175	
501	2.5	1602.383422851563	1264.099365234375	304.4264526367189	1758.017456054688	1267.04150390625	174.7716674804688	1815.172485351563	1079.027587890625	174.7061462402344	1778.597778320313	882.464721679688	315.4769897460939	1779.651123046876	874.671997070313	89.82180786132815	1584.119018554688	965.6974487304692	212.3484802246095	1687.993164062501	590.567810058594	333.9751892089845	1695.788696289063	514.549499511719	312.2243041992189	1728.950317382813	565.3732910156252	318.1771545410157	1625.266113281251	255.6423797607423	298.781951904297	1649.506469726563	216.0214233398439	278.8394775390626	1689.033325195313	19.75267410278321	275.4169006347657	1725.950561523438	34.39258956909181	219.9656829833986	1856.254028320313	622.8576660156252	52.6629333496094	1751.058593750001	270.4838867187501	86.15173339843753	1799.472900390626	281.6126403808595	86.47454833984378	1655.993530273438	111.7109527587891	153.0162506103516	1831.888549804688	60.70686721801761	122.9425430297852	1788.368164062501	59.88671875000003	84.08081054687503	1536.599853515626	35.39205551147462	211.7962036132814	1807.352539062501	623.594177246094	52.81996154785159	1806.458862304688	564.277038574219	70.09206390380862	1634.043334960938	1358.512573242188	191.4561614990235	1673.791503906251	291.0286865234376	286.1857910156251	1579.334960937501	925.6589965820317	171.7396850585938	1567.891113281251	903.9929199218755	187.7162628173829	1568.291259765626	905.6587524414067	238.3080139160157	1581.841186523438	931.992309570313	261.2521057128907	1604.267456054688	1063.593383789063	206.3805541992189	1786.345336914063	340.9187011718751	73.69935607910159	
502	2.505	1608.968872070313	1263.759887695313	304.9905090332032	1764.111694335938	1266.255249023438	174.5515747070313	1821.040405273438	1078.260131835938	174.6067810058594	1784.621704101563	881.7125854492192	315.859344482422	1786.209716796876	874.4812622070317	90.20569610595706	1590.345947265626	965.0031738281255	212.3245697021486	1691.610229492188	590.2319335937502	334.0081481933595	1698.464355468751	514.1936035156252	312.0720825195314	1732.196044921876	564.6753540039065	317.8362121582032	1626.152221679688	255.6427459716798	298.8143615722657	1650.219848632813	215.9514465332032	278.8056030273439	1689.023559570313	19.79609489440919	275.3504638671876	1725.976928710938	34.40336227416994	219.8337402343751	1864.553710937501	623.8232421875002	53.1862716674805	1766.834106445313	267.1390075683595	86.18948364257815	1814.836669921876	279.8638000488282	86.51420593261722	1676.960449218751	105.2061233520508	152.7488708496094	1854.653686523438	60.06861495971683	122.8869018554688	1811.226074218751	57.79714965820315	84.0126647949219	1536.603393554688	35.52385330200197	211.8484649658204	1815.659423828126	624.1768798828127	53.19842147827151	1815.177368164063	564.833190917969	70.40177917480472	1640.329467773438	1357.917236328125	191.580062866211	1674.774536132813	290.839569091797	286.0876464843751	1585.615966796876	924.9286499023442	171.7281036376954	1574.212768554688	903.3265991210942	187.5540313720704	1574.489990234376	904.922973632813	238.1476440429689	1587.968872070313	931.2734375000005	261.221405029297	1610.328002929688	1062.981689453125	206.8055572509767	1799.758666992188	338.7158813476564	73.84686279296878	
503	2.51	1615.541137695313	1263.325073242188	305.5335998535157	1770.211425781251	1265.390380859375	174.3399963378907	1826.932006835938	1077.412963867188	174.5226135253907	1790.635131835938	880.8965454101567	316.2548217773439	1792.814575195313	874.1723632812505	90.59605407714847	1596.600097656251	964.2257690429692	212.2197875976564	1695.227050781251	589.8743286132815	334.0819091796876	1701.167602539063	513.8175048828127	311.9661560058595	1735.451538085938	563.9758300781252	317.5653381347657	1627.066040039063	255.6449279785157	298.873748779297	1650.953247070313	215.8712921142579	278.8029785156251	1689.016601562501	19.83399391174317	275.2945861816407	1726.000610351563	34.40303421020509	219.7125701904298	1872.745117187501	624.6154785156252	53.77148437500003	1782.611450195313	263.7476806640626	86.25447082519534	1830.140502929688	278.0928344726564	86.53444671630862	1698.156860351563	98.81810760498053	152.5160522460938	1877.440307617188	59.58306884765628	122.8270797729493	1834.154174804688	55.86993789672854	83.95890808105472	1536.618408203126	35.68589401245119	211.9100189208986	1823.846679687501	624.609558105469	53.5823669433594	1823.715820312501	565.2383422851565	70.70948791503909	1646.613525390626	1357.243286132813	191.6953430175782	1675.789062500001	290.6360778808595	286.0283203125001	1591.928955078126	924.1047363281255	171.6552276611329	1580.560913085938	902.5736694335942	187.3252868652344	1580.692871093751	904.1192016601567	237.9212493896486	1594.093994140626	930.4880371093755	261.1192932128907	1616.401245117188	1062.2802734375	207.1766357421876	1813.084716796876	336.4113159179689	74.00312805175784	
